<svg xmlns="http://www.w3.org/2000/svg" viewBox="0 0 512 512">
  <defs>
    <linearGradient id="bg" x1="0" y1="0" x2="0" y2="1">
      <stop offset="0%" stop-color="#1A252F"/>
      <stop offset="100%" stop-color="#0b1218"/>
    </linearGradient>
  </defs>
  <rect width="512" height="512" rx="96" fill="url(#bg)"/>
  <circle cx="256" cy="230" r="160" fill="#94DCF8" opacity="0.12"/>
  <path d="M172.99 230L163.00 230L163.00 190.31Q163.00 182.09 159.29 178.41Q155.59 174.73 147.37 174.73L147.37 174.73L124.44 174.73L124.44 166.73L147.85 166.73Q160.26 166.73 166.63 172.72Q172.99 178.71 172.99 190.58L172.99 190.58L172.99 230ZM134.21 230L124.54 230L124.54 208.41Q124.54 202.88 125.46 199.98Q126.37 197.08 127.34 195.03L127.34 195.03L135.50 195.03Q134.85 197.45 134.53 200.43Q134.21 203.41 134.21 207.76L134.21 207.76L134.21 230ZM194.64 231.07L194.64 231.07Q191.84 231.07 189.37 230.75Q186.90 230.43 184.38 229.89L184.38 229.89L184.65 222.10Q188.14 222.80 192.49 222.80L192.49 222.80Q196.84 222.80 199.07 220.31Q201.30 217.81 201.30 212.49L201.30 212.49L201.30 174.73L188.89 174.73L188.89 166.73L211.29 166.73L211.29 213.30Q211.29 222.05 206.96 226.56Q202.64 231.07 194.64 231.07ZM243.73 230L233.74 230L233.74 174.73L226.38 174.73L226.38 166.73L243.73 166.73L243.73 230ZM259.52 166.73L289.01 166.73Q301.57 166.73 307.78 172.72Q313.98 178.71 313.98 190.95L313.98 190.95L313.98 230L304.04 230L303.99 190.36Q303.99 182.14 300.47 178.44Q296.95 174.73 289.11 174.73L289.11 174.73L280.14 174.73Q278.37 177.63 277.32 182.17Q276.28 186.71 276.28 191.49L276.28 191.49L276.28 212.81Q276.28 221.57 272.11 226.05Q267.95 230.54 260.11 230.54L260.11 230.54Q258.50 230.54 257.02 230.40Q255.54 230.27 253.93 230.05L253.93 230.05L253.93 222.05Q254.90 222.16 255.84 222.21Q256.78 222.27 257.64 222.27L257.64 222.27Q262.36 222.27 264.46 219.85Q266.55 217.43 266.55 212.22L266.55 212.22L266.55 192.24Q266.55 187.46 267.82 182.57Q269.08 177.69 271.39 174.73L271.39 174.73L259.52 174.73L259.52 166.73ZM387.30 230L376.18 230L330.31 166.73L341.48 166.73L387.30 230ZM342.23 230L332.56 230L332.56 207.07Q332.56 198.20 335.84 192.78Q339.12 187.35 346.05 184.83L346.05 184.83L349.97 189.99Q342.23 193.48 342.23 203.47L342.23 203.47L342.23 230ZM376.34 166.73L387.56 166.73L365.76 204.92L359.15 197.24L376.34 166.73Z" fill="#94DCF8"/>
  <path d="M196.26 322.68L196.26 330L149.63 330L149.63 323.55L172.92 297.63Q177.26 292.84 179.63 289.50Q182.00 286.15 182.93 283.47Q183.86 280.78 183.86 278.00L183.86 278.00Q183.86 272.72 180.66 268.99Q177.46 265.25 171.55 265.25L171.55 265.25Q166.77 265.25 163.62 267.11Q160.47 268.96 158.93 272.24Q157.39 275.51 157.39 279.80L157.39 279.80L148.26 279.80Q148.26 273.80 150.90 268.82Q153.53 263.84 158.73 260.88Q163.93 257.93 171.55 257.93L171.55 257.93Q181.61 257.93 187.30 263.15Q192.99 268.38 192.99 276.92L192.99 276.92Q192.99 281.12 191.18 285.37Q189.37 289.62 186.35 293.79Q183.32 297.97 179.66 301.92L179.66 301.92L160.61 322.68L196.26 322.68ZM250.46 288.79L250.46 299.68Q250.46 311.25 247.75 318.11Q245.04 324.97 240.01 327.97Q234.98 330.98 228.09 330.98L228.09 330.98Q221.31 330.98 216.23 327.97Q211.15 324.97 208.34 318.11Q205.54 311.25 205.54 299.68L205.54 299.68L205.54 288.79Q205.54 277.17 208.29 270.43Q211.05 263.69 216.11 260.81Q221.16 257.93 228.00 257.93L228.00 257.93Q234.88 257.93 239.91 260.81Q244.94 263.69 247.70 270.43Q250.46 277.17 250.46 288.79L250.46 288.79ZM241.33 301.09L241.33 287.28Q241.33 279.27 239.81 274.43Q238.30 269.60 235.32 267.43Q232.34 265.25 228.00 265.25L228.00 265.25Q223.70 265.25 220.72 267.43Q217.74 269.60 216.21 274.43Q214.67 279.27 214.67 287.28L214.67 287.28L214.67 301.09Q214.67 309.05 216.23 314.03Q217.79 319.01 220.79 321.33Q223.80 323.65 228.09 323.65L228.09 323.65Q232.49 323.65 235.42 321.33Q238.35 319.01 239.84 314.03Q241.33 309.05 241.33 301.09L241.33 301.09ZM308.66 322.68L308.66 330L262.03 330L262.03 323.55L285.32 297.63Q289.67 292.84 292.04 289.50Q294.40 286.15 295.33 283.47Q296.26 280.78 296.26 278.00L296.26 278.00Q296.26 272.72 293.06 268.99Q289.86 265.25 283.95 265.25L283.95 265.25Q279.17 265.25 276.02 267.11Q272.87 268.96 271.33 272.24Q269.79 275.51 269.79 279.80L269.79 279.80L260.66 279.80Q260.66 273.80 263.30 268.82Q265.94 263.84 271.14 260.88Q276.34 257.93 283.95 257.93L283.95 257.93Q294.01 257.93 299.70 263.15Q305.39 268.38 305.39 276.92L305.39 276.92Q305.39 281.12 303.58 285.37Q301.78 289.62 298.75 293.79Q295.72 297.97 292.06 301.92L292.06 301.92L273.02 322.68L308.66 322.68ZM352.90 258.81L353.68 258.81L353.68 266.43L352.90 266.43Q345.72 266.43 340.91 268.75Q336.10 271.06 333.25 274.95Q330.39 278.83 329.17 283.66Q327.95 288.50 327.95 293.53L327.95 293.53L327.95 303.97Q327.95 310.32 329.90 314.69Q331.85 319.06 335.00 321.31Q338.15 323.55 341.67 323.55L341.67 323.55Q345.87 323.55 348.77 321.46Q351.68 319.36 353.22 315.67Q354.75 311.98 354.75 307.25L354.75 307.25Q354.75 303.00 353.36 299.24Q351.97 295.48 349.12 293.13Q346.26 290.79 341.86 290.79L341.86 290.79Q338.10 290.79 334.86 292.62Q331.61 294.45 329.56 297.43Q327.51 300.41 327.22 303.88L327.22 303.88L322.43 303.83Q323.11 298.41 324.99 294.53Q326.87 290.64 329.68 288.18Q332.49 285.71 335.98 284.54Q339.47 283.37 343.38 283.37L343.38 283.37Q350.46 283.37 354.95 286.79Q359.44 290.21 361.59 295.58Q363.74 300.95 363.74 306.81L363.74 306.81Q363.74 313.54 361.22 319.01Q358.71 324.48 353.80 327.73Q348.90 330.98 341.67 330.98L341.67 330.98Q335.91 330.98 331.61 328.61Q327.31 326.24 324.48 322.31Q321.65 318.38 320.23 313.54Q318.82 308.71 318.82 303.73L318.82 303.73L318.82 299.43Q318.82 291.87 320.31 284.64Q321.80 277.41 325.53 271.58Q329.27 265.74 335.93 262.28Q342.60 258.81 352.90 258.81L352.90 258.81Z" fill="#FFFFFF"/>

  <!-- דגל יוון: 9 פסים + קנטון עם צלב -->
  <g transform="translate(166 390)">
    <rect x="0" y="0"  width="180" height="9" fill="#0D5EAF"/>
    <rect x="0" y="9"  width="180" height="9" fill="#FFFFFF"/>
    <rect x="0" y="18" width="180" height="9" fill="#0D5EAF"/>
    <rect x="0" y="27" width="180" height="9" fill="#FFFFFF"/>
    <rect x="0" y="36" width="180" height="9" fill="#0D5EAF"/>
    <rect x="0" y="45" width="180" height="9" fill="#FFFFFF"/>
    <rect x="0" y="54" width="180" height="9" fill="#0D5EAF"/>
    <rect x="0" y="63" width="180" height="9" fill="#FFFFFF"/>
    <rect x="0" y="72" width="180" height="9" fill="#0D5EAF"/>
    <rect x="0" y="0" width="81" height="45" fill="#0D5EAF"/>
    <rect x="33" y="4.5"  width="15" height="36" fill="#FFFFFF"/>
    <rect x="12" y="15" width="57" height="15" fill="#FFFFFF"/>
  </g>
</svg>