<svg xmlns="http://www.w3.org/2000/svg" viewBox="0 0 512 512">
  <defs>
    <linearGradient id="bg" x1="0" y1="0" x2="0" y2="1">
      <stop offset="0%" stop-color="#1A252F"/>
      <stop offset="100%" stop-color="#0b1218"/>
    </linearGradient>
  </defs>
  <rect width="512" height="512" rx="96" fill="url(#bg)"/>
  <circle cx="256" cy="240" r="170" fill="#94DCF8" opacity="0.12"/>
  <path d="M171.45 151.77L166.73 151.77L166.73 138.87L161.24 138.87L161.24 135.09L171.45 135.09L171.45 151.77ZM177.24 165.20L177.24 165.20Q176.96 165.20 176.64 165.19Q176.32 165.18 176.04 165.13L176.04 165.13L176.04 160.79Q176.43 160.84 176.81 160.86Q177.19 160.89 177.52 160.89L177.52 160.89Q180.06 160.81 181.88 159.78Q183.71 158.75 184.84 157.04Q185.97 155.33 186.38 153.22L186.38 153.22L186.38 138.87L179.63 138.87L179.63 135.09L191.03 135.09L191.03 150.53Q191.03 152.89 191.51 155.10L191.51 155.10L193.59 165L189.15 165L187.39 156.62L187.22 156.62Q186.91 158.88 185.53 160.84Q184.14 162.79 182.00 164.00Q179.85 165.20 177.24 165.20ZM207.25 151.77L202.53 151.77L202.53 138.87L197.04 138.87L197.04 135.09L207.25 135.09L207.25 151.77ZM222.08 165L217.36 165L217.36 138.87L213.88 138.87L213.88 135.09L222.08 135.09L222.08 165ZM239.62 165L234.77 165L230.71 139.08L228.60 138.72L228.60 135.09L243.13 135.09L243.10 138.87L235.38 138.87L239.62 165ZM264.99 128.03L249.58 168.17L245.51 168.17L260.95 128.03L264.99 128.03ZM278.14 151.77L273.42 151.77L273.42 138.87L267.93 138.87L267.93 135.09L278.14 135.09L278.14 151.77ZM303.86 165L299.16 165L299.16 144.13Q299.16 141.69 297.73 140.28Q296.29 138.87 293.81 138.87L293.81 138.87L283.75 138.87L283.75 135.09L293.96 135.09Q298.61 135.09 301.23 137.57Q303.86 140.04 303.86 144.48L303.86 144.48L303.86 165ZM318.49 165L313.76 165L313.76 138.87L310.29 138.87L310.29 135.09L318.49 135.09L318.49 165ZM332.38 165L327.68 165L327.70 135.09L338.95 135.09Q344.89 135.09 347.81 137.92Q350.73 140.75 350.76 146.54L350.76 146.54L350.76 165L346.06 165L346.06 146.26Q346.06 142.38 344.38 140.63Q342.71 138.87 339.00 138.87L339.00 138.87L332.40 138.87L332.38 165Z" fill="#94DCF8"/>
  <path d="M184.31 250L175.68 250L175.68 215.72Q175.68 208.62 172.48 205.45Q169.28 202.27 162.18 202.27L162.18 202.27L142.38 202.27L142.38 195.36L162.60 195.36Q173.32 195.36 178.81 200.53Q184.31 205.70 184.31 215.95L184.31 215.95L184.31 250ZM150.82 250L142.47 250L142.47 231.35Q142.47 226.57 143.26 224.07Q144.05 221.56 144.88 219.80L144.88 219.80L151.93 219.80Q151.37 221.89 151.10 224.46Q150.82 227.04 150.82 230.80L150.82 230.80L150.82 250ZM203.00 250.93L203.00 250.93Q200.59 250.93 198.46 250.65Q196.32 250.37 194.14 249.91L194.14 249.91L194.38 243.18Q197.39 243.78 201.15 243.78L201.15 243.78Q204.91 243.78 206.83 241.63Q208.76 239.47 208.76 234.88L208.76 234.88L208.76 202.27L198.04 202.27L198.04 195.36L217.38 195.36L217.38 235.57Q217.38 243.13 213.65 247.03Q209.91 250.93 203.00 250.93ZM245.40 250L236.77 250L236.77 202.27L230.42 202.27L230.42 195.36L245.40 195.36L245.40 250ZM259.04 195.36L284.50 195.36Q295.36 195.36 300.72 200.53Q306.07 205.70 306.07 216.28L306.07 216.28L306.07 250L297.49 250L297.45 215.77Q297.45 208.67 294.41 205.47Q291.37 202.27 284.60 202.27L284.60 202.27L276.85 202.27Q275.32 204.77 274.42 208.69Q273.51 212.61 273.51 216.74L273.51 216.74L273.51 235.16Q273.51 242.72 269.92 246.59Q266.32 250.46 259.55 250.46L259.55 250.46Q258.16 250.46 256.88 250.35Q255.61 250.23 254.21 250.05L254.21 250.05L254.21 243.13Q255.05 243.23 255.86 243.27Q256.67 243.32 257.41 243.32L257.41 243.32Q261.50 243.32 263.31 241.23Q265.11 239.15 265.11 234.65L265.11 234.65L265.11 217.39Q265.11 213.26 266.21 209.04Q267.30 204.82 269.29 202.27L269.29 202.27L259.04 202.27L259.04 195.36ZM369.39 250L359.79 250L320.18 195.36L329.82 195.36L369.39 250ZM330.47 250L322.12 250L322.12 230.19Q322.12 222.54 324.95 217.85Q327.78 213.17 333.77 210.99L333.77 210.99L337.15 215.44Q330.47 218.46 330.47 227.08L330.47 227.08L330.47 250ZM359.93 195.36L369.62 195.36L350.79 228.34L345.09 221.70L359.93 195.36Z" fill="#94DCF8"/>
  <path d="M205.22 333.77L205.22 340L165.58 340L165.58 334.52L185.38 312.48Q189.07 308.42 191.09 305.57Q193.10 302.73 193.89 300.45Q194.68 298.16 194.68 295.80L194.68 295.80Q194.68 291.32 191.96 288.14Q189.24 284.97 184.22 284.97L184.22 284.97Q180.15 284.97 177.47 286.54Q174.80 288.12 173.49 290.90Q172.18 293.68 172.18 297.33L172.18 297.33L164.42 297.33Q164.42 292.23 166.66 288.00Q168.90 283.76 173.32 281.25Q177.74 278.74 184.22 278.74L184.22 278.74Q192.77 278.74 197.60 283.18Q202.44 287.62 202.44 294.89L202.44 294.89Q202.44 298.45 200.90 302.07Q199.37 305.68 196.79 309.22Q194.22 312.77 191.11 316.14L191.11 316.14L174.92 333.77L205.22 333.77ZM251.29 304.97L251.29 314.23Q251.29 324.06 248.99 329.89Q246.68 335.73 242.41 338.28Q238.13 340.83 232.28 340.83L232.28 340.83Q226.51 340.83 222.20 338.28Q217.88 335.73 215.49 329.89Q213.11 324.06 213.11 314.23L213.11 314.23L213.11 304.97Q213.11 295.09 215.45 289.37Q217.80 283.64 222.09 281.19Q226.39 278.74 232.20 278.74L232.20 278.74Q238.05 278.74 242.32 281.19Q246.60 283.64 248.94 289.37Q251.29 295.09 251.29 304.97L251.29 304.97ZM243.53 315.43L243.53 303.68Q243.53 296.88 242.24 292.77Q240.95 288.66 238.42 286.81Q235.89 284.97 232.20 284.97L232.20 284.97Q228.55 284.97 226.01 286.81Q223.48 288.66 222.17 292.77Q220.87 296.88 220.87 303.68L220.87 303.68L220.87 315.43Q220.87 322.19 222.20 326.43Q223.52 330.66 226.08 332.63Q228.63 334.60 232.28 334.60L232.28 334.60Q236.02 334.60 238.51 332.63Q241.00 330.66 242.26 326.43Q243.53 322.19 243.53 315.43L243.53 315.43ZM300.76 333.77L300.76 340L261.13 340L261.13 334.52L280.92 312.48Q284.62 308.42 286.63 305.57Q288.64 302.73 289.43 300.45Q290.22 298.16 290.22 295.80L290.22 295.80Q290.22 291.32 287.50 288.14Q284.78 284.97 279.76 284.97L279.76 284.97Q275.69 284.97 273.02 286.54Q270.34 288.12 269.03 290.90Q267.72 293.68 267.72 297.33L267.72 297.33L259.96 297.33Q259.96 292.23 262.20 288.00Q264.45 283.76 268.87 281.25Q273.29 278.74 279.76 278.74L279.76 278.74Q288.31 278.74 293.15 283.18Q297.98 287.62 297.98 294.89L297.98 294.89Q297.98 298.45 296.45 302.07Q294.91 305.68 292.34 309.22Q289.76 312.77 286.65 316.14L286.65 316.14L270.46 333.77L300.76 333.77ZM338.36 279.49L339.03 279.49L339.03 285.96L338.36 285.96Q332.26 285.96 328.18 287.93Q324.09 289.90 321.66 293.20Q319.23 296.50 318.19 300.61Q317.16 304.72 317.16 309.00L317.16 309.00L317.16 317.88Q317.16 323.27 318.82 326.99Q320.48 330.70 323.15 332.61Q325.83 334.52 328.82 334.52L328.82 334.52Q332.39 334.52 334.86 332.74Q337.33 330.95 338.63 327.82Q339.94 324.69 339.94 320.66L339.94 320.66Q339.94 317.05 338.76 313.85Q337.58 310.66 335.15 308.66Q332.72 306.67 328.98 306.67L328.98 306.67Q325.79 306.67 323.03 308.23Q320.27 309.79 318.53 312.32Q316.78 314.85 316.53 317.80L316.53 317.80L312.47 317.75Q313.05 313.15 314.65 309.85Q316.24 306.55 318.63 304.45Q321.02 302.36 323.98 301.36Q326.95 300.36 330.27 300.36L330.27 300.36Q336.29 300.36 340.11 303.27Q343.93 306.17 345.75 310.74Q347.58 315.31 347.58 320.29L347.58 320.29Q347.58 326.01 345.44 330.66Q343.30 335.31 339.13 338.07Q334.96 340.83 328.82 340.83L328.82 340.83Q323.92 340.83 320.27 338.82Q316.62 336.80 314.21 333.46Q311.80 330.12 310.60 326.01Q309.39 321.90 309.39 317.67L309.39 317.67L309.39 314.02Q309.39 307.59 310.66 301.44Q311.93 295.30 315.10 290.34Q318.28 285.38 323.94 282.43Q329.61 279.49 338.36 279.49L338.36 279.49Z" fill="#FFFFFF"/>

  <!-- דגל יוון: 9 פסים + קנטון עם צלב -->
  <g transform="translate(166 400)">
    <rect x="0" y="0"  width="180" height="9" fill="#0D5EAF"/>
    <rect x="0" y="9"  width="180" height="9" fill="#FFFFFF"/>
    <rect x="0" y="18" width="180" height="9" fill="#0D5EAF"/>
    <rect x="0" y="27" width="180" height="9" fill="#FFFFFF"/>
    <rect x="0" y="36" width="180" height="9" fill="#0D5EAF"/>
    <rect x="0" y="45" width="180" height="9" fill="#FFFFFF"/>
    <rect x="0" y="54" width="180" height="9" fill="#0D5EAF"/>
    <rect x="0" y="63" width="180" height="9" fill="#FFFFFF"/>
    <rect x="0" y="72" width="180" height="9" fill="#0D5EAF"/>
    <rect x="0" y="0" width="81" height="45" fill="#0D5EAF"/>
    <rect x="33" y="4.5"  width="15" height="36" fill="#FFFFFF"/>
    <rect x="12" y="15" width="57" height="15" fill="#FFFFFF"/>
  </g>
</svg>